<svg width="15" height="16" viewBox="0 0 15 16" fill="none" xmlns="http://www.w3.org/2000/svg">
<path d="M13.7722 10.6247C13.9022 10.7542 14.0054 10.9082 14.0757 11.0777C14.146 11.2473 14.182 11.429 14.1818 11.6126C14.1818 11.9861 14.0355 12.3372 13.7722 12.6005L11.9427 14.43C11.5228 14.8517 10.9428 15.0909 10.3473 15.0909C10.2216 15.0909 10.1012 15.0806 9.98242 15.0599C7.66242 14.6778 5.36135 13.4438 3.50431 11.5885C1.649 9.73486 0.416718 7.43548 0.0294771 5.10856C-0.0875559 4.39775 0.148231 3.66628 0.661109 3.14995M13.7722 10.6247L11.7981 8.65401C11.5348 8.39069 11.1837 8.24439 10.8102 8.24439C10.627 8.24435 10.4455 8.28051 10.2763 8.35081C10.1071 8.4211 9.95337 8.52415 9.82408 8.65401L8.38182 10.0963C7.63758 9.75664 6.9607 9.28555 6.38366 8.70565C5.80517 8.12854 5.3358 7.45159 4.9982 6.70746L6.44046 5.26518C6.70378 5.00185 6.85007 4.65075 6.85007 4.27727C6.85011 4.09401 6.81395 3.91255 6.74366 3.74331C6.67336 3.57407 6.57032 3.42038 6.44046 3.29108L4.46811 1.31871C4.20479 1.05538 3.85369 0.909088 3.48022 0.909088C3.29696 0.909044 3.1155 0.945209 2.94626 1.0155C2.77703 1.0858 2.62334 1.18884 2.49405 1.31871L0.661109 3.14995M13.7722 10.6247L13.7722 10.6247L13.7722 10.6247ZM0.661109 3.14995L1.0145 3.50367L1.0152 3.50297C0.614636 3.90664 0.432277 4.47691 0.5228 5.02712C0.891158 7.23963 2.06785 9.44654 3.85771 11.2348C5.64997 13.0254 7.85878 14.2034 10.0637 14.5666L10.0637 14.5666L10.0681 14.5673C10.1578 14.5829 10.2496 14.5909 10.3473 14.5909C10.8108 14.5909 11.263 14.4039 11.5884 14.0772L11.5892 14.0765L13.4187 12.2469C13.5886 12.077 13.6818 11.8529 13.6818 11.6126L13.6818 11.612C13.682 11.4944 13.6588 11.3779 13.6138 11.2692C13.5687 11.1606 13.5026 11.0619 13.4193 10.9789L13.419 10.9785L11.4449 9.00787L11.4446 9.00756C11.2746 8.83759 11.0505 8.74439 10.8102 8.74439H10.8101C10.6927 8.74436 10.5765 8.76753 10.4681 8.81256C10.3597 8.85759 10.2612 8.9236 10.1784 9.00679L10.1776 9.00756L8.73538 10.4498L8.48997 10.6953L8.17423 10.5512C7.37558 10.1867 6.64918 9.68119 6.02988 9.05897C5.40902 8.43944 4.90525 7.71278 4.54287 6.91403L4.39982 6.59873L4.64465 6.3539L6.0869 4.91163C6.25687 4.74165 6.35007 4.51756 6.35007 4.27727V4.27715C6.3501 4.15975 6.32693 4.04351 6.2819 3.9351C6.23687 3.82668 6.17087 3.72824 6.08768 3.64541L6.0869 3.64463L4.11456 1.67226C3.94458 1.50229 3.72049 1.40909 3.48022 1.40909L3.4801 1.40909C3.36271 1.40906 3.24647 1.43223 3.13806 1.47726C3.02965 1.52229 2.9312 1.58829 2.84838 1.67148L2.84744 1.67243L1.01585 3.50232L0.661109 3.14995Z" fill="white" stroke="#018596"/>
</svg>
